Spartacus - Gods of the Arena EP02 - Missio

Verenigde Staten ~ 50 minuten per aflevering ~ gecreëerd door Steven S. DeKnight ~ met Dustin Clare, Lucy Lawless, John Hannah, Peter Mensah, Manu Bennett e.a.

Voordat Spartacus zijn eerste opponent neerstak, waren er vele gladiatoren die door de poorten het zand betraden. 'Spartacus: Gods of the Arena' vertelt het verhaal van de originele Kampioen van het Huis van Batiatus. Gannicus in een meer meedogenloze tijd voor Spartacus' aankomst waar eer net zijn weg vond naar de Arena.

Bestandsformaat: .MKV (Matroska bestand, af te spelen op bijvoorbeeld blu-ray speler of gewoon de pc)
Bestandsgrootte: 1,45 GB
Taal: Engels 5.1
Ondertitelingen: Nederlands en Engels
Categorie : Serie
DVD5 of DVD9 : NVT
Bron : HDTV
Menu: Nee
Extra's: Nee
Genre : Actie
Weblink : http://www.imdb.com/title/tt1758429/

~~~~~~~~~~~~~~~~~~~~~~~~
USA ~ 50 minutes per episode ~ created by Steven S. DeKnight ~ witht Dustin Clare, Lucy Lawless, John Hannah, Peter Mensah, Manu Bennett and others.

Before Spartacus struck down his first opponent in the arena, there were many gladiators who passed though the gates onto the sand.'Spartacus: Gods of the Arena' tells the story of the original Champion of the House of Batiatus: Gannicus in a more ruthless time before Spartacus' arrival where honor was just finding it's way into the arena.

File format: .MKV (Matroska file, playable with for example a blu-ray player or on your pc)
File size: 1,45 GB
Language: English 5.1
Subtitles: Dutch and English
Category : Serie
DVD5 or DVD9 : NONE
Source : HDTV
Menu: No
Extras: No
Genre : Action
Weblink : http://www.imdb.com/title/tt1758429/

~~~~~~~~~~~~~~~~~~~~~~
Video and audio informatie:
~~~~~~~~~~~~~~~~~~~~~~
ID                               : 2
Format                           : AVC
Format/Info                      : Advanced Video Codec
Format profile                   : High@L3.1
Format settings, CABAC           : Yes
Format settings, ReFrames        : 5 frames
Muxing mode                      : Container profile=Unknown@3.1
Codec ID                         : V_MPEG4/ISO/AVC
Duration                         : 54mn 59s
Bit rate                         : 3 407 Kbps
Width                            : 1 280 pixels
Height                           : 720 pixels
Display aspect ratio             : 16:9
Frame rate                       : 23.976 fps
Color space                      : YUV
Chroma subsampling               : 4:2:0
Bit depth                        : 8 bits
Scan type                        : Progressive
Bits/(Pixel*Frame)               : 0.154
Stream size                      : 1.28 GiB (88%)
Writing library                  : x264 core 85 r1442tw
Encoding settings                : cabac=1 / ref=5 / deblock=1:0:0 / analyse=0x3:0x113 / me=umh / subme=8 / psy=1 / psy_rd=1.00:0.00 / mixed_ref=1 / me_range=16 / chroma_me=1 / trellis=1 / 8x8dct=1 / cqm=0 / deadzone=21,11 / fast_pskip=1 / chroma_qp_offset=-2 / threads=30 / sliced_threads=0 / nr=0 / decimate=1 / mbaff=0 / constrained_intra=0 / bframes=3 / b_pyramid=2 / b_adapt=2 / b_bias=0 / direct=3 / wpredb=1 / wpredp=2 / keyint=240 / keyint_min=24 / scenecut=40 / intra_refresh=0 / rc_lookahead=50 / rc=2pass / mbtree=1 / bitrate=3407 / ratetol=1.0 / qcomp=0.60 / qpmin=10 / qpmax=51 / qpstep=4 / cplxblur=20.0 / qblur=0.5 / ip_ratio=1.40 / aq=1:1.00
Language                         : English

Audio
ID                               : 1
Format                           : AC-3
Format/Info                      : Audio Coding 3
Mode extension                   : CM (complete main)
Codec ID                         : A_AC3
Duration                         : 54mn 59s
Bit rate mode                    : Constant
Bit rate                         : 384 Kbps
Channel(s)                       : 6 channels
Channel positions                : Front: L C R, Side: L R, LFE
Sampling rate                    : 48.0 KHz
Bit depth                        : 16 bits
Stream size                      : 151 MiB (10%)

~~~~~~~~~~~~~~~
Hornigold TBS
~~~~~~~~~~~~~~~